<svg id="visual" viewBox="0 0 900 600" width="900" height="600" xmlns="http://www.w3.org/2000/svg" xmlns:xlink="http://www.w3.org/1999/xlink" version="1.1"><rect width="900" height="600" fill="#00101C"></rect><g><g transform="translate(637 17)"><path d="M105.2 -31.7C117.4 3.5 95.4 52.3 60.8 75.5C26.1 98.8 -21.2 96.5 -56 72.3C-90.9 48.1 -113.3 2 -101.9 -32.1C-90.5 -66.2 -45.3 -88.3 0.6 -88.5C46.5 -88.7 92.9 -67 105.2 -31.7Z" stroke="#297EA6" fill="none" stroke-width="20"></path></g><g transform="translate(58 49)"><path d="M74.9 -21.9C84.1 4 69.7 40.1 43.1 59.4C16.5 78.8 -22.3 81.5 -45.7 64.2C-69.1 46.9 -77 9.6 -66.8 -17.7C-56.6 -44.9 -28.3 -62.3 2.3 -63C32.8 -63.8 65.7 -47.9 74.9 -21.9Z" stroke="#297EA6" fill="none" stroke-width="20"></path></g><g transform="translate(272 322)"><path d="M76 -22.6C86.4 7.3 74.4 46.6 47.9 65.8C21.4 85.1 -19.7 84.3 -49.2 63.7C-78.8 43.2 -96.9 2.9 -86.8 -26.6C-76.7 -56.1 -38.3 -74.9 -2.8 -74C32.8 -73.1 65.6 -52.5 76 -22.6Z" stroke="#297EA6" fill="none" stroke-width="20"></path></g><g transform="translate(608 437)"><path d="M45.4 -12.7C52.7 7.7 48.2 33.9 32.1 46.1C16 58.2 -11.7 56.2 -29.1 42.9C-46.5 29.6 -53.5 4.9 -47 -14.4C-40.4 -33.7 -20.2 -47.8 -0.6 -47.6C19.1 -47.4 38.1 -33 45.4 -12.7Z" stroke="#297EA6" fill="none" stroke-width="20"></path></g><g transform="translate(10 519)"><path d="M64.4 -20.1C73.9 8.2 65.3 43.1 42.7 59.8C20.1 76.5 -16.6 75 -41.2 57C-65.7 39.1 -78.1 4.9 -69.2 -22.6C-60.3 -50.1 -30.2 -70.9 -1.3 -70.5C27.5 -70 55 -48.4 64.4 -20.1Z" stroke="#297EA6" fill="none" stroke-width="20"></path></g><g transform="translate(898 227)"><path d="M88.9 -26.8C102.5 13.1 92.2 62.9 60 87.4C27.8 112 -26.3 111.3 -57.6 86.8C-88.9 62.3 -97.5 13.9 -84.1 -25.6C-70.7 -65.1 -35.3 -95.8 1.1 -96.2C37.6 -96.5 75.3 -66.6 88.9 -26.8Z" stroke="#297EA6" fill="none" stroke-width="20"></path></g></g></svg>