<svg id="visual" viewBox="0 0 900 600" width="900" height="600" xmlns="http://www.w3.org/2000/svg" xmlns:xlink="http://www.w3.org/1999/xlink" version="1.1"><path d="M0 199L30 184C60 169 120 139 180 128C240 117 300 125 360 144C420 163 480 193 540 181C600 169 660 115 720 93C780 71 840 81 870 86L900 91L900 0L870 0C840 0 780 0 720 0C660 0 600 0 540 0C480 0 420 0 360 0C300 0 240 0 180 0C120 0 60 0 30 0L0 0Z" fill="#3060aa"></path><path d="M0 217L30 209C60 201 120 185 180 179C240 173 300 177 360 192C420 207 480 233 540 225C600 217 660 175 720 150C780 125 840 117 870 113L900 109L900 89L870 84C840 79 780 69 720 91C660 113 600 167 540 179C480 191 420 161 360 142C300 123 240 115 180 126C120 137 60 167 30 182L0 197Z" fill="#417edb"></path><path d="M0 361L30 351C60 341 120 321 180 316C240 311 300 321 360 335C420 349 480 367 540 359C600 351 660 317 720 307C780 297 840 311 870 318L900 325L900 107L870 111C840 115 780 123 720 148C660 173 600 215 540 223C480 231 420 205 360 190C300 175 240 171 180 177C120 183 60 199 30 207L0 215Z" fill="#6e9dec"></path><path d="M0 397L30 385C60 373 120 349 180 344C240 339 300 353 360 372C420 391 480 415 540 411C600 407 660 375 720 372C780 369 840 395 870 408L900 421L900 323L870 316C840 309 780 295 720 305C660 315 600 349 540 357C480 365 420 347 360 333C300 319 240 309 180 314C120 319 60 339 30 349L0 359Z" fill="#81aaef"></path><path d="M0 457L30 439C60 421 120 385 180 382C240 379 300 409 360 430C420 451 480 463 540 458C600 453 660 431 720 433C780 435 840 461 870 474L900 487L900 419L870 406C840 393 780 367 720 370C660 373 600 405 540 409C480 413 420 389 360 370C300 351 240 337 180 342C120 347 60 371 30 383L0 395Z" fill="#6e9dec"></path><path d="M0 541L30 531C60 521 120 501 180 507C240 513 300 545 360 555C420 565 480 553 540 544C600 535 660 529 720 535C780 541 840 559 870 568L900 577L900 485L870 472C840 459 780 433 720 431C660 429 600 451 540 456C480 461 420 449 360 428C300 407 240 377 180 380C120 383 60 419 30 437L0 455Z" fill="#417edb"></path><path d="M0 601L30 601C60 601 120 601 180 601C240 601 300 601 360 601C420 601 480 601 540 601C600 601 660 601 720 601C780 601 840 601 870 601L900 601L900 575L870 566C840 557 780 539 720 533C660 527 600 533 540 542C480 551 420 563 360 553C300 543 240 511 180 505C120 499 60 519 30 529L0 539Z" fill="#3060aa"></path></svg>