<svg id="visual" viewBox="0 0 900 600" width="900" height="600" xmlns="http://www.w3.org/2000/svg" xmlns:xlink="http://www.w3.org/1999/xlink" version="1.1"><rect x="0" y="0" width="900" height="600" fill="#002233"></rect><path d="M0 60L4.8 73.8C9.7 87.7 19.3 115.3 29 158.8C38.7 202.3 48.3 261.7 58 318.7C67.7 375.7 77.3 430.3 87 431.2C96.7 432 106.3 379 116 354.8C125.7 330.7 135.3 335.3 145 349C154.7 362.7 164.3 385.3 174 357.8C183.7 330.3 193.3 252.7 203 217.3C212.7 182 222.3 189 232 234.2C241.7 279.3 251.3 362.7 261 375.7C270.7 388.7 280.3 331.3 290 333.2C299.7 335 309.3 396 319 360.8C328.7 325.7 338.3 194.3 348 161.7C357.7 129 367.3 195 377 202.8C386.7 210.7 396.3 160.3 406 168.8C415.7 177.3 425.3 244.7 435.2 246.7C445 248.7 455 185.3 464.8 183C474.7 180.7 484.3 239.3 494 260.7C503.7 282 513.3 266 523 262.7C532.7 259.3 542.3 268.7 552 311.3C561.7 354 571.3 430 581 421C590.7 412 600.3 318 610 300.5C619.7 283 629.3 342 639 352.3C648.7 362.7 658.3 324.3 668 282.7C677.7 241 687.3 196 697 169.8C706.7 143.7 716.3 136.3 726 160.5C735.7 184.7 745.3 240.3 755 258.7C764.7 277 774.3 258 784 223C793.7 188 803.3 137 813 154C822.7 171 832.3 256 842 286.8C851.7 317.7 861.3 294.3 871 283.2C880.7 272 890.3 273 895.2 273.5L900 274L900 601L895.2 601C890.3 601 880.7 601 871 601C861.3 601 851.7 601 842 601C832.3 601 822.7 601 813 601C803.3 601 793.7 601 784 601C774.3 601 764.7 601 755 601C745.3 601 735.7 601 726 601C716.3 601 706.7 601 697 601C687.3 601 677.7 601 668 601C658.3 601 648.7 601 639 601C629.3 601 619.7 601 610 601C600.3 601 590.7 601 581 601C571.3 601 561.7 601 552 601C542.3 601 532.7 601 523 601C513.3 601 503.7 601 494 601C484.3 601 474.7 601 464.8 601C455 601 445 601 435.2 601C425.3 601 415.7 601 406 601C396.3 601 386.7 601 377 601C367.3 601 357.7 601 348 601C338.3 601 328.7 601 319 601C309.3 601 299.7 601 290 601C280.3 601 270.7 601 261 601C251.3 601 241.7 601 232 601C222.3 601 212.7 601 203 601C193.3 601 183.7 601 174 601C164.3 601 154.7 601 145 601C135.3 601 125.7 601 116 601C106.3 601 96.7 601 87 601C77.3 601 67.7 601 58 601C48.3 601 38.7 601 29 601C19.3 601 9.7 601 4.8 601L0 601Z" fill="#0066FF" stroke-linecap="round" stroke-linejoin="miter"></path></svg>